# xmcd
#
# Track frame offsets: 
#        150
#        15149
#        37289
#        50953
#        78032
#        93442
#        111124
#        127780
#        153244
#        174968
#        194581
#        215070
#        235360
#        252968
#        274656
#        297215
#        327306
#
# Disc length: 4786 seconds
#
# Revision: 0
# Processed by: cddbd v1.5.2PL0 Copyright (c) Steve Scherf et al.
# Submitted via: ExactAudioCopy v0.95a5
#
DISCID=eb12b011
DTITLE=Various Artist - Akella Presents - Rockin' Blues  vol.27  CD1
DYEAR=2011
DGENRE=Blues
TTITLE0=King Of The Blues - SCOTT ELLISON
TTITLE1=Same Old Story - PAT McMANUS
TTITLE2=Never Kill The Chicken - SIDEBURN
TTITLE3=Pale White Circle - The BEAT DADDYS
TTITLE4=Second Opinion - Dr.FEELGOOD
TTITLE5=Punching Bag - JOHN CAMPBELLJOHN
TTITLE6=Cross My Heart - CHRIS DUARTE
TTITLE7=That Magic - The ROCKY ATHAS GROUP
TTITLE8=Fool - BLUESBALL
TTITLE9=Many Years Ago - RUDY ROTTA
TTITLE10=Train's On Time - COYOTE KINGS
TTITLE11=I Ain't Easy - JAY JESSE JOHNSON
TTITLE12=Search for You - DANNY BRYANT
TTITLE13=Sisters Have Mercy - BUDDAHEADS
TTITLE14=A Nickel And A Nail - FRED CHAPELIER and BILLY PRICE
TTITLE15=Hoochie Mama - SIR OLIVER MALLY
TTITLE16=I Want To Make Love To You - LOST IN DETROIT
EXTD=
EXTT0=
EXTT1=
EXTT2=
EXTT3=
EXTT4=
EXTT5=
EXTT6=
EXTT7=
EXTT8=
EXTT9=
EXTT10=
EXTT11=
EXTT12=
EXTT13=
EXTT14=
EXTT15=
EXTT16=
PLAYORDER=
